<svg width="650" height="650" viewBox="0 0 650 650" fill="none" xmlns="http://www.w3.org/2000/svg">
<path d="M324.778 640.778C499.3 640.778 640.778 499.3 640.778 324.778C640.778 150.256 499.3 8.77783 324.778 8.77783C150.256 8.77783 8.77783 150.256 8.77783 324.778C8.77783 499.3 150.256 640.778 324.778 640.778Z" stroke="#1D1D1B" stroke-width="17.5556" stroke-miterlimit="10"/>
<path d="M324.765 451.169C394.574 451.169 451.166 394.578 451.166 324.769C451.166 254.961 394.574 198.37 324.765 198.37C254.957 198.37 198.365 254.961 198.365 324.769C198.365 394.578 254.957 451.169 324.765 451.169Z" stroke="#1D1D1B" stroke-width="17.5556" stroke-miterlimit="10"/>
<path d="M324.765 427.525C381.485 427.525 427.465 381.544 427.465 324.825C427.465 268.105 381.485 222.125 324.765 222.125C268.045 222.125 222.064 268.105 222.064 324.825C222.064 381.544 268.045 427.525 324.765 427.525Z" stroke="#1D1D1B" stroke-width="17.5556" stroke-miterlimit="10"/>
<path d="M324.763 403.794C368.393 403.794 403.763 368.425 403.763 324.794C403.763 281.164 368.393 245.794 324.763 245.794C281.132 245.794 245.763 281.164 245.763 324.794C245.763 368.425 281.132 403.794 324.763 403.794Z" stroke="#1D1D1B" stroke-width="17.5556" stroke-miterlimit="10"/>
<path d="M324.763 380.102C355.305 380.102 380.063 355.343 380.063 324.802C380.063 294.26 355.305 269.502 324.763 269.502C294.222 269.502 269.463 294.26 269.463 324.802C269.463 355.343 294.222 380.102 324.763 380.102Z" stroke="#1D1D1B" stroke-width="17.5556" stroke-miterlimit="10"/>
<path d="M324.76 356.371C342.212 356.371 356.36 342.222 356.36 324.77C356.36 307.318 342.212 293.17 324.76 293.17C307.308 293.17 293.16 307.318 293.16 324.77C293.16 342.222 307.308 356.371 324.76 356.371Z" stroke="#1D1D1B" stroke-width="17.5556" stroke-miterlimit="10"/>
<path d="M138.827 324.655L66.8501 317.106L68.6052 300.429C70.1852 284.453 81.5968 280.942 91.0768 281.995C97.748 282.697 101.434 285.682 104.068 289.544C107.754 284.804 113.197 281.995 122.151 283.048C133.035 284.102 142.514 290.598 140.934 306.573L139.003 324.831L138.827 324.655ZM98.6256 303.588C99.6789 294.108 92.4812 292.704 89.8478 292.353C87.2145 292.002 79.8413 292.178 78.9635 301.658L78.4363 306.924L98.0984 309.031L98.6256 303.413V303.588ZM130.401 304.993C131.279 296.39 124.608 294.108 120.922 293.757C117.235 293.406 110.212 294.284 109.334 302.886L108.632 310.26L129.524 312.542L130.225 305.168L130.401 304.993Z" fill="#1D1D1B"/>
<path d="M78.6191 247.026L93.0148 210.862L103.197 214.9L93.0148 240.355L111.448 247.729L120.401 225.433L130.584 229.471L121.63 251.766L140.064 259.14L150.246 233.684L160.429 237.722L146.033 273.886L78.7949 247.026H78.6191Z" fill="#1D1D1B"/>
<path d="M166.408 227.581L109.002 183.341L120.061 169.121C129.366 157.007 140.602 157.709 150.258 165.083C157.104 170.349 160.966 177.547 159.035 185.623L190.459 196.332L183.262 205.637L153.945 195.454L149.73 200.896L173.08 218.978L166.408 227.581ZM141.304 194.401L145.693 188.783C151.486 181.234 145.868 175.616 143.411 173.685C140.953 171.754 134.106 167.892 128.313 175.265L123.924 180.883L141.304 194.225V194.401Z" fill="#1D1D1B"/>
<path d="M163.605 123.792L181.336 147.491L176.947 113.96L186.953 106.587L191.342 140.118L230.14 164.871L220.484 172.069L193.098 154.514L194.503 164.871L207.318 181.9L198.716 188.396L155.177 130.287L163.78 123.792H163.605Z" fill="#1D1D1B"/>
<path d="M214.483 91.3446L250.823 77.2998L254.686 87.4823L229.055 97.3134L236.077 115.747L258.548 107.144L262.411 117.327L239.939 125.929L246.962 144.362L272.592 134.531L276.455 144.714L240.115 158.758L214.133 91.1688L214.483 91.3446Z" fill="#1D1D1B"/>
<path d="M282.46 70.0977L294.048 69.0444L299.49 129.786L326.525 127.328L327.578 138.915L288.957 142.427L282.46 70.0977Z" fill="#1D1D1B"/>
<path d="M353.01 68.1801L391.281 75.378L389.351 86.0866L362.315 80.9959L358.628 100.482L382.328 104.871L380.397 115.58L356.697 111.191L353.01 130.678L380.046 135.769L378.115 146.478L339.844 139.28L353.186 68.0044L353.01 68.1801Z" fill="#1D1D1B"/>
<path d="M430.612 89.9028L426.048 120.801L447.817 98.5054L457.999 103.596L423.415 138.707L412.003 161.706L401.646 156.614L413.056 133.792L420.255 84.9873L430.612 90.0786V89.9028Z" fill="#1D1D1B"/>
<path d="M471.334 210.216L532.778 171.77L541.732 185.989C550.159 199.507 543.488 209.339 535.412 214.43C529.794 217.941 525.054 217.941 520.665 216.537C520.665 222.505 518.208 228.123 510.484 232.863C501.179 238.656 489.767 239.359 481.165 225.841L471.51 210.392L471.334 210.216ZM490.119 220.399C494.683 227.772 501.354 225.49 504.514 223.383C507.674 221.452 512.59 216.361 508.026 209.163L503.988 202.843L486.081 214.078L490.119 220.399ZM515.75 201.965C520.841 210.041 527.336 206.705 529.619 205.301C531.901 203.896 537.519 199.332 532.428 191.256L529.619 186.692L512.766 197.225L515.75 201.965Z" fill="#1D1D1B"/>
<path d="M496.791 253.572L569.646 244.092L574.913 261.999L508.378 293.072L505.217 282.364L518.384 276.395L514.346 262.35L500.126 264.282L496.966 253.572H496.791ZM527.688 271.655L562.272 255.679L524.529 260.77L527.688 271.479V271.655Z" fill="#1D1D1B"/>
<path d="M583.509 322.212C583.684 338.012 572.8 341.699 562.442 341.874H559.984V331.341H562.442C565.953 331.341 573.151 330.815 572.976 322.388C572.976 314.312 566.304 313.785 563.847 313.961H563.495C557.351 313.961 554.367 317.824 551.909 323.617C546.818 335.028 543.482 342.226 529.613 342.577C517.851 342.577 508.897 337.837 508.722 323.441C508.546 307.641 519.431 303.955 529.789 303.779H536.284V314.312H529.789C526.278 314.312 519.08 314.839 519.256 323.265C519.256 331.341 525.926 331.868 528.384 331.692H528.735C534.002 331.692 536.986 329.585 540.322 322.036C545.237 310.625 549.802 303.428 562.793 303.077C574.731 302.901 583.509 308.694 583.684 322.036L583.509 322.212Z" fill="#1D1D1B"/>
<path d="M578.415 373.589L568.233 411.334L557.7 408.525L564.897 382.016L545.761 376.749L539.441 399.922L528.908 397.113L535.228 373.94L516.092 368.673L508.895 395.182L498.362 392.373L508.543 354.629L578.591 373.589H578.415Z" fill="#1D1D1B"/>
<path d="M555.431 441.072L546.302 456.345C538.577 468.985 527.166 469.512 517.862 463.894L490.651 447.568C479.591 440.896 477.484 430.012 484.155 418.952L493.283 403.679L555.431 441.072ZM496.795 418.425L493.108 424.57C488.543 432.119 494.161 436.858 496.619 438.438L523.304 454.414C525.937 455.994 532.608 458.627 537.172 451.078L540.859 444.934L496.971 418.425H496.795Z" fill="#1D1D1B"/>
<path d="M443.945 554.583C430.076 561.781 421.474 553.354 416.909 544.577L415.505 541.768L425.16 536.676L426.565 539.485C427.969 542.119 431.481 548.79 438.854 544.927C446.227 541.065 442.891 534.394 441.487 531.761L426.565 502.969C425.16 500.336 421.649 493.665 414.276 497.527C406.902 501.39 410.239 508.061 411.643 510.694L413.222 513.679L403.567 518.77L401.987 515.785C396.193 504.725 397.774 493.841 409.361 487.872C423.23 480.674 431.831 489.277 436.396 497.879L451.319 526.67C457.112 537.73 455.531 548.614 443.945 554.583Z" fill="#1D1D1B"/>
<path d="M385.647 521.63L392.318 553.405C394.776 565.519 390.563 575.7 377.748 578.334C364.932 580.967 357.032 573.594 354.399 561.305L347.728 529.529C345.27 517.416 349.483 507.234 362.299 504.601C375.115 501.967 383.014 509.341 385.647 521.63ZM365.283 559.023C365.985 562.007 367.565 569.381 375.64 567.625C383.716 566.045 382.312 558.671 381.61 555.687L374.938 523.911C374.236 520.927 372.657 513.554 364.581 515.309C356.506 517.065 357.91 524.263 358.612 527.247L365.283 559.023Z" fill="#1D1D1B"/>
<path d="M326.153 583.035L315.269 582.333L308.422 559.862L298.591 581.28L287.707 580.577L292.622 508.249L303.506 508.951L300.522 552.664L310.353 531.422L317.2 553.717L320.184 510.004L331.068 510.706L326.153 583.035Z" fill="#1D1D1B"/>
<path d="M280.161 505.454L255.583 573.569L238.203 567.425C223.807 562.334 220.998 551.273 225.212 539.862C229.425 528.451 238.377 521.78 252.773 526.871L259.796 529.329L269.802 501.591L280.161 505.278V505.454ZM256.284 539.336L249.263 536.878C240.309 533.718 236.622 540.74 235.569 543.549C234.516 546.358 232.936 554.258 241.714 557.418L248.736 559.876L256.109 539.336H256.284Z" fill="#1D1D1B"/>
<path d="M233.972 487.225L182.709 539.716L167.612 528.831L200.792 463.35L209.746 469.845L203.25 482.661L215.012 491.087L225.019 480.729L233.972 487.225ZM198.51 492.14L181.13 526.023L207.639 498.636L198.51 492.14Z" fill="#1D1D1B"/>
<path d="M128.993 492.341L151.815 452.49L118.46 479.174L111.613 470.572L168.142 425.278L174.988 433.881L152.166 473.732L185.522 447.048L192.369 455.65L135.84 500.943L128.993 492.341Z" fill="#1D1D1B"/>
<path d="M91.4481 433.846L115.148 413.481L84.0739 416.29L79.6851 405.757L128.84 401.543L152.365 391.537L156.93 402.245L133.405 412.252L96.1873 444.554L91.7984 434.021L91.4481 433.846Z" fill="#1D1D1B"/>
</svg>
